<?xml version="1.0" encoding="UTF-8"?>
<svg width="40px" height="40px" viewBox="0 0 40 40" version="1.1" xmlns="http://www.w3.org/2000/svg" xmlns:xlink="http://www.w3.org/1999/xlink">
    <!-- Generator: sketchtool 52.5 (67469) - http://www.bohemiancoding.com/sketch -->
    <title>51C9814D-D870-4AC5-90AF-D013274D7D98</title>
    <desc>Created with sketchtool.</desc>
    <g id="Symbols" stroke="none" stroke-width="1" fill="none" fill-rule="evenodd">
        <g id="Glyph_40/link-black" fill="#424242" fill-rule="nonzero">
            <g id="Group" transform="translate(11.000000, 2.000000)">
                <path d="M2,16 L0,16 L0,9 C0,4.02943725 4.02943725,8.8817842e-16 9,0 C13.9705627,-8.8817842e-16 18,4.02943725 18,9 L18,16 L16,16 L16,9 C16,5.13400675 12.8659932,2 9,2 C5.13400675,2 2,5.13400675 2,9 L2,16 Z" id="Combined-Shape"></path>
                <path d="M2,36 L0,36 L0,29 C0,24.0294373 4.02943725,20 9,20 C13.9705627,20 18,24.0294373 18,29 L18,36 L16,36 L16,29 C16,25.1340068 12.8659932,22 9,22 C5.13400675,22 2,25.1340068 2,29 L2,36 Z" id="Combined-Shape" transform="translate(9.000000, 28.000000) rotate(-180.000000) translate(-9.000000, -28.000000) "></path>
                <polygon id="Path-21" points="8 11 10 11 10 26 8 26"></polygon>
            </g>
        </g>
    </g>
</svg>