<svg xmlns="http://www.w3.org/2000/svg" width="40" height="40" viewBox="0 0 40 40">
    <g fill="#CCCCCD" fill-rule="evenodd">
        <path d="M26 9.988L20 4l-6 5.988 1.254 1.252 3.85-3.844V15h1.792V7.396l3.85 3.844zM26 30.012L20 36l-6-5.988 1.254-1.252 3.85 3.844V25h1.792v7.604l3.85-3.844z"/>
        <g>
            <path d="M30.012 26L36 20l-5.988-6-1.252 1.254 3.844 3.85H25v1.792h7.604l-3.844 3.85zM9.988 26L4 20l5.988-6 1.252 1.254-3.844 3.85H15v1.792H7.396l3.844 3.85z"/>
        </g>
    </g>
</svg>
