<svg xmlns="http://www.w3.org/2000/svg" width="40" height="40" viewBox="0 0 40 40">
    <g fill="#FFF" fill-rule="evenodd">
        <path d="M35.03 16.862c-.617-.072-1.309-.11-2.072-.182-.146 0-.218-.11-.292-.218a12.726 12.726 0 0 0-1.019-2.436c-.073-.11-.036-.254.036-.364.509-.581.945-1.091 1.345-1.564a2.13 2.13 0 0 0-.146-2.874l-2.107-2.147c-.799-.799-2-.837-2.874-.146-.473.4-1.019.838-1.564 1.345-.11.072-.218.11-.364.036a14.593 14.593 0 0 0-2.437-1.019.316.316 0 0 1-.217-.292 29.581 29.581 0 0 0-.182-2.072A2.133 2.133 0 0 0 21.026 3h-3.055c-1.091 0-2.037.838-2.111 1.929-.072.617-.109 1.309-.182 2.072 0 .146-.109.218-.217.292-.838.254-1.637.582-2.437 1.019-.11.073-.254.036-.364-.036-.545-.509-1.091-.945-1.564-1.345a2.13 2.13 0 0 0-2.874.146L6.077 9.224c-.799.799-.837 2-.146 2.874.4.473.838 1.019 1.346 1.564.071.11.109.218.035.364a14.617 14.617 0 0 0-1.019 2.436.315.315 0 0 1-.291.218c-.764.036-1.455.11-2.073.182A2.132 2.132 0 0 0 2 18.973v3.055c0 1.091.838 2.037 1.929 2.111.618.071 1.309.109 2.073.181.146 0 .217.11.291.218.254.838.582 1.637 1.019 2.437.073.109.036.253-.035.364-.51.581-.946 1.091-1.346 1.564a2.13 2.13 0 0 0 .146 2.874l2.147 2.147c.799.799 2 .837 2.874.145.473-.4 1.019-.837 1.564-1.345.11-.072.218-.11.364-.036.764.4 1.601.764 2.437 1.019a.317.317 0 0 1 .217.292c.036.764.11 1.455.182 2.073A2.132 2.132 0 0 0 17.973 38h3.055c1.091 0 2.037-.837 2.111-1.928.072-.618.109-1.309.182-2.073 0-.146.109-.218.217-.292a12.582 12.582 0 0 0 2.437-1.019c.11-.072.254-.036.364.036.545.51 1.091.945 1.564 1.345a2.129 2.129 0 0 0 2.874-.145l2.147-2.147c.799-.8.837-2 .145-2.874-.399-.473-.837-1.019-1.345-1.564-.071-.111-.11-.219-.036-.364.4-.764.764-1.601 1.019-2.437a.318.318 0 0 1 .292-.218c.764-.035 1.455-.11 2.073-.181A2.132 2.132 0 0 0 37 22.028v-3.055c-.041-1.092-.879-2.039-1.97-2.111zm.074 5.164c0 .146-.11.292-.254.292-.617.072-1.273.11-2 .146a2.137 2.137 0 0 0-1.891 1.527 11.79 11.79 0 0 1-.873 2.11c-.4.764-.292 1.747.292 2.401.473.545.909 1.055 1.309 1.526.109.11.071.292-.036.4l-2.147 2.146a.33.33 0 0 1-.4.037c-.473-.4-.981-.838-1.527-1.31a2.16 2.16 0 0 0-2.4-.291 10.74 10.74 0 0 1-2.111.873 2.186 2.186 0 0 0-1.526 1.891c-.036.727-.11 1.419-.146 2 0 .146-.146.254-.292.254h-3.056c-.145 0-.291-.11-.291-.254a30.484 30.484 0 0 1-.146-2 2.137 2.137 0 0 0-1.527-1.891 11.688 11.688 0 0 1-2.11-.873 2.022 2.022 0 0 0-1.02-.254c-.509 0-1.019.182-1.419.509-.545.474-1.055.91-1.526 1.309-.111.11-.292.073-.4-.035L7.46 30.392a.328.328 0 0 1-.036-.4c.4-.473.838-.981 1.309-1.526a2.16 2.16 0 0 0 .292-2.401 10.73 10.73 0 0 1-.873-2.11 2.185 2.185 0 0 0-1.891-1.527c-.727-.036-1.419-.11-2.001-.146-.146 0-.253-.146-.253-.292v-3.056c0-.145.109-.291.253-.291.618-.072 1.274-.11 2.001-.146a2.137 2.137 0 0 0 1.891-1.527c.218-.727.509-1.419.873-2.11.4-.764.292-1.747-.292-2.401a113.76 113.76 0 0 1-1.309-1.527c-.11-.109-.072-.291.036-.399l2.147-2.147a.328.328 0 0 1 .4-.036c.473.4.981.838 1.526 1.309a2.158 2.158 0 0 0 2.4.292 10.704 10.704 0 0 1 2.111-.873 2.185 2.185 0 0 0 1.527-1.891c.036-.727.11-1.419.146-2 0-.146.146-.255.292-.255h3.056c.145 0 .291.111.291.255.072.617.11 1.273.146 2a2.136 2.136 0 0 0 1.527 1.891c.727.217 1.419.509 2.11.873.764.4 1.747.292 2.4-.292.546-.473 1.056-.909 1.528-1.309.109-.109.291-.072.399.036l2.147 2.147a.33.33 0 0 1 .036.399c-.4.474-.838.982-1.309 1.527a2.16 2.16 0 0 0-.292 2.401c.364.655.655 1.383.873 2.11a2.187 2.187 0 0 0 1.891 1.527c.727.036 1.419.11 2 .146.146 0 .254.146.254.291v3.092h.038z"/>
        <path d="M19.42 15C16.438 15 14 17.437 14 20.42c0 2.982 2.438 5.42 5.42 5.42 2.982 0 5.42-2.438 5.42-5.42 0-2.982-2.438-5.42-5.42-5.42m0 9.022a3.61 3.61 0 0 1-3.601-3.602c0-2 1.6-3.601 3.601-3.601a3.586 3.586 0 0 1 3.601 3.601 3.61 3.61 0 0 1-3.601 3.602"/>
    </g>
</svg>
